<svg xmlns:dc="http://purl.org/dc/elements/1.1/" xmlns:cc="http://creativecommons.org/ns#" xmlns:rdf="http://www.w3.org/1999/02/22-rdf-syntax-ns#" xmlns:svg="http://www.w3.org/2000/svg" xmlns="http://www.w3.org/2000/svg" xmlns:xlink="http://www.w3.org/1999/xlink" id="svg168730" viewBox="0 0 1024 768" height="768px" width="1024px" version="1.1">
  <metadata id="metadata168736">
    <rdf:rdf>
      <cc:work rdf:about="">
        <dc:format>image/svg+xml</dc:format>
        <dc:type rdf:resource="http://purl.org/dc/dcmitype/StillImage"></dc:type>
      </cc:work>
    </rdf:rdf>
  </metadata>
  <defs id="defs168734"></defs>
  <linearGradient spreadMethod="pad" y2="30%" x2="-10%" y1="120%" x1="30%" id="3d_gradient2-logo-858557cf-8be9-4110-9e98-a83d611fca4a">
    <stop id="stop168711" stop-opacity="1" stop-color="#ffffff" offset="0%"></stop>
    <stop id="stop168713" stop-opacity="1" stop-color="#000000" offset="100%"></stop>
  </linearGradient>
  <linearGradient gradientTransform="rotate(-30)" spreadMethod="pad" y2="30%" x2="-10%" y1="120%" x1="30%" id="3d_gradient3-logo-858557cf-8be9-4110-9e98-a83d611fca4a">
    <stop id="stop168716" stop-opacity="1" stop-color="#ffffff" offset="0%"></stop>
    <stop id="stop168718" stop-opacity="1" stop-color="#cccccc" offset="50%"></stop>
    <stop id="stop168720" stop-opacity="1" stop-color="#000000" offset="100%"></stop>
  </linearGradient>
  <g id="logo-group">
    <image xlink:href="" id="container" style="display: none;" x="272" y="144" width="480" height="480" transform="translate(0 0)"></image>
    <g id="logo-center" transform="translate(1.7053025658242404e-13 0)">
      <image xlink:href="" id="icon_container" style="display: none;" x="0" y="0"></image>
      <g id="slogan" style="font-style:normal;font-weight:400;font-size:32px;line-height:1;font-family:'Nunito Sans';font-variant-ligatures:none;text-align:center;text-anchor:middle" transform="translate(0 0)"></g>
      <g id="title" style="font-style:normal;font-weight:normal;font-size:72px;line-height:1;font-family:'Brandmark Sans 26';font-variant-ligatures:normal;text-align:center;text-anchor:middle" transform="translate(0 0)">
        <path id="path168739" style="font-style:normal;font-weight:normal;font-size:72px;line-height:1;font-family:'Brandmark Sans 26';font-variant-ligatures:normal;text-align:center;text-anchor:middle" d="m 319.97431,-50.4 h -12.384 V 0 h 12.384 c 5.544,0 15.336,-2.376 15.336,-14.76 v -20.88 c 0,-12.384 -9.792,-14.76 -15.336,-14.76 z m 5.544,14.76 v 20.88 c 0,4.536 -2.736,5.112 -5.544,5.112 h -2.592 v -31.104 h 2.592 c 2.808,0 5.544,0.576 5.544,5.112 z" stroke-width="0" stroke-linejoin="miter" stroke-miterlimit="2" fill="#ef6044" stroke="#ef6044" transform="translate(0 310.06) translate(296.03324375 47.48) scale(1.05) translate(-307.59031 50.4)"></path>
        <path id="path168741" style="font-style:normal;font-weight:normal;font-size:72px;line-height:1;font-family:'Brandmark Sans 26';font-variant-ligatures:normal;text-align:center;text-anchor:middle" d="m 339.65281,0 h 9.792 v -50.4 h -9.792 z" stroke-width="0" stroke-linejoin="miter" stroke-miterlimit="2" fill="#ef6044" stroke="#ef6044" transform="translate(0 310.06) translate(329.69886875000003 47.48) scale(1.05) translate(-339.65281 50.4)"></path>
        <path id="path168743" style="font-style:normal;font-weight:normal;font-size:72px;line-height:1;font-family:'Brandmark Sans 26';font-variant-ligatures:normal;text-align:center;text-anchor:middle" d="m 346.90456,0 h 2.664 v -50.4 h -2.664 z m 32.04,-50.4 h -16.128 c 9.144,0 15.768,5.976 15.768,17.208 0,11.232 -6.624,17.208 -15.768,17.208 h -3.528 V 0 h 19.656 z m -9.72,17.208 c 0,-6.696 -3.96,-7.92 -5.904,-7.92 h -4.032 v 15.768 h 4.032 c 1.944,0 5.904,-1.152 5.904,-7.848 z" stroke-width="0" stroke-linejoin="miter" stroke-miterlimit="2" fill="#ef6044" stroke="#ef6044" transform="translate(0 310.06) translate(337.3132062500001 47.48) scale(1.05) translate(-346.90456 50.4)"></path>
        <path id="path168745" style="font-style:normal;font-weight:normal;font-size:72px;line-height:1;font-family:'Brandmark Sans 26';font-variant-ligatures:normal;text-align:center;text-anchor:middle" d="m 379.03906,0 h 2.664 v -50.4 h -2.664 z m 12.384,-9.288 h 15.48 V -50.4 h -15.48 z" stroke-width="0" stroke-linejoin="miter" stroke-miterlimit="2" fill="#ef6044" stroke="#ef6044" transform="translate(0 310.06) translate(371.0544312500001 47.48) scale(1.05) translate(-379.03906 50.4)"></path>
        <path id="path168747" style="font-style:normal;font-weight:normal;font-size:72px;line-height:1;font-family:'Brandmark Sans 26';font-variant-ligatures:normal;text-align:center;text-anchor:middle" d="m 406.46094,0 h 11.088 c -4.68,-1.944 -9.288,-6.264 -9.288,-14.76 v -20.88 c 0,-8.496 4.608,-12.816 9.288,-14.76 h -11.088 z m 23.184,0 h 11.16 v -50.4 h -11.16 c 4.68,1.944 9.288,6.264 9.288,14.76 v 20.88 c 0,8.496 -4.608,12.816 -9.288,14.76 z m -11.592,-14.76 c 0,4.536 2.736,6.336 5.544,6.336 2.808,0 5.544,-1.8 5.544,-6.336 v -20.88 c 0,-4.536 -2.736,-6.336 -5.544,-6.336 -2.808,0 -5.544,1.8 -5.544,6.336 z" stroke-width="0" stroke-linejoin="miter" stroke-miterlimit="2" fill="#ef6044" stroke="#ef6044" transform="translate(0 310.06) translate(399.8474052500001 47.48) scale(1.05) translate(-406.46094 50.4)"></path>
        <path id="path168749" style="font-style:normal;font-weight:normal;font-size:72px;line-height:1;font-family:'Brandmark Sans 26';font-variant-ligatures:normal;text-align:center;text-anchor:middle" d="m 440.77344,0 h 2.664 v -50.4 h -2.664 z m 23.328,-15.84 7.848,-34.56 h -15.768 z M 484.69344,0 h 2.736 v -50.4 h -2.736 z m -15.768,-3.312 h -9.72 l -7.2,-33.408 1.152,36.72 h 21.816 l 1.152,-36.72 z" stroke-width="0" stroke-linejoin="miter" stroke-miterlimit="2" fill="#ef6044" stroke="#ef6044" transform="translate(0 310.06) translate(435.8755302500001 47.48) scale(1.05) translate(-440.77344 50.4)"></path>
        <path id="path168751" style="font-style:normal;font-weight:normal;font-size:72px;line-height:1;font-family:'Brandmark Sans 26';font-variant-ligatures:normal;text-align:center;text-anchor:middle" d="m 487.17631,0 11.304,-50.4 h -11.304 z m 21.6,-50.4 11.304,50.4 v -50.4 z m -9.216,35.64 h 8.136 l -4.032,-22.968 z M 496.96831,0 h 13.32 l -0.936,-5.472 h -11.376 z" stroke-width="0" stroke-linejoin="miter" stroke-miterlimit="2" fill="#ef6044" stroke="#ef6044" transform="translate(0 310.06) translate(484.5985437500001 47.48) scale(1.05) translate(-487.17631 50.4)"></path>
        <path id="path168753" style="font-style:normal;font-weight:normal;font-size:72px;line-height:1;font-family:'Brandmark Sans 26';font-variant-ligatures:normal;text-align:center;text-anchor:middle" d="m 519.72931,0 h 11.304 l -11.304,-50.4 z m 22.32,-50.4 h -12.528 l 6.264,30.816 z m -1.44,50.4 h 11.232 v -50.4 z" stroke-width="0" stroke-linejoin="miter" stroke-miterlimit="2" fill="#ef6044" stroke="#ef6044" transform="translate(0 310.06) translate(518.7791937500001 47.48) scale(1.05) translate(-519.72931 50.4)"></path>
        <path id="path168755" style="font-style:normal;font-weight:normal;font-size:72px;line-height:1;font-family:'Brandmark Sans 26';font-variant-ligatures:normal;text-align:center;text-anchor:middle" d="m 551.65456,0 h 2.52 v -50.4 h -2.52 z m 12.384,-9.288 h 14.688 V 0 h 1.368 v -50.4 h -1.368 v 9.288 h -14.688 v 11.376 h 12.744 v 9.288 h -12.744 z" stroke-width="0" stroke-linejoin="miter" stroke-miterlimit="2" fill="#ef6044" stroke="#ef6044" transform="translate(0 310.06) translate(552.30070625 47.48) scale(1.05) translate(-551.65456 50.4)"></path>
        <path id="path168757" style="font-style:normal;font-weight:normal;font-size:72px;line-height:1;font-family:'Brandmark Sans 26';font-variant-ligatures:normal;text-align:center;text-anchor:middle" d="m 580.13281,0 h 2.664 v -50.4 h -2.664 z m 15.912,-50.4 c 9.144,0 15.768,5.976 15.768,17.208 0,6.984 -2.592,11.952 -6.768,14.688 L 613.18081,0 h 0.648 v -50.4 z m -3.528,25.056 h 4.032 c 1.944,0 5.904,-1.152 5.904,-7.848 0,-6.696 -3.96,-7.92 -5.904,-7.92 h -4.032 z m 0,25.344 h 10.872 l -7.056,-15.984 h -3.816 z" stroke-width="0" stroke-linejoin="miter" stroke-miterlimit="2" fill="#ef6044" stroke="#ef6044" transform="translate(0 310.06) translate(582.2028687499999 47.48) scale(1.05) translate(-580.13281 50.4)"></path>
        <path id="path168759" style="font-style:normal;font-weight:normal;font-size:72px;line-height:1;font-family:'Brandmark Sans 26';font-variant-ligatures:normal;text-align:center;text-anchor:middle" d="M 613.88281,-50.4 V 0 h 2.52 v -50.4 z m 14.904,0 h -2.52 V 0 h 2.52 z" stroke-width="0" stroke-linejoin="miter" stroke-miterlimit="2" fill="#ef6044" stroke="#ef6044" transform="translate(0 310.06) translate(617.6403687499999 47.48) scale(1.05) translate(-613.88281 50.4)"></path>
        <path id="path168761" style="font-style:normal;font-weight:normal;font-size:72px;line-height:1;font-family:'Brandmark Sans 26';font-variant-ligatures:normal;text-align:center;text-anchor:middle" d="m 628.35706,0 h 9.288 v -41.112 h -9.288 z m 19.08,0 h 9.288 v -41.112 h -9.288 z" stroke-width="0" stroke-linejoin="miter" stroke-miterlimit="2" fill="#ef6044" stroke="#ef6044" transform="translate(0 310.06) translate(632.8383312499999 57.23239999999999) scale(1.05) translate(-628.35706 41.112)"></path>
        <path id="path168763" style="font-style:normal;font-weight:normal;font-size:72px;line-height:1;font-family:'Brandmark Sans 26';font-variant-ligatures:normal;text-align:center;text-anchor:middle" d="m 656.20756,0 11.304,-50.4 h -11.304 z m 21.6,-50.4 11.304,50.4 v -50.4 z m -9.216,35.64 h 8.136 l -4.032,-22.968 z M 665.99956,0 h 13.32 l -0.936,-5.472 h -11.376 z" stroke-width="0" stroke-linejoin="miter" stroke-miterlimit="2" fill="#ef6044" stroke="#ef6044" transform="translate(0 310.06) translate(662.0813562499997 47.48) scale(1.05) translate(-656.20756 50.4)"></path>
        <path id="path168765" style="font-style:normal;font-weight:normal;font-size:72px;line-height:1;font-family:'Brandmark Sans 26';font-variant-ligatures:normal;text-align:center;text-anchor:middle" d="m 689.86756,-38.52 c 0,-6.192 3.312,-10.08 7.416,-11.88 h -9.432 V 0 h 9.072 c -7.56,-3.384 -8.28,-12.672 -8.28,-15.264 h 9.792 c 0,2.952 1.368,6.984 5.04,6.984 2.952,0 4.896,-1.728 4.896,-4.896 0,-8.568 -18.504,-10.08 -18.504,-25.344 z m 29.088,-11.88 h -9.288 c 7.272,3.312 7.488,12.096 7.488,14.616 h -9.792 c 0,-2.88 -0.576,-6.336 -4.248,-6.336 -1.872,0 -3.96,0.72 -3.96,3.888 0,7.776 18.72,10.728 18.72,24.12 0,7.704 -3.096,12.168 -7.776,14.112 h 8.856 z" stroke-width="0" stroke-linejoin="miter" stroke-miterlimit="2" fill="#ef6044" stroke="#ef6044" transform="translate(0 310.06) translate(695.3075562499997 47.48) scale(1.05) translate(-687.85156 50.4)"></path>
      </g>
      <image xlink:href="" id="icon" style="display: none;" x="0" y="0"></image>
    </g>
  </g>
</svg>